
        <svg xmlns="http://www.w3.org/2000/svg" xmlns:cc="http://creativecommons.org/ns#" xmlns:rdf="http://www.w3.org/1999/02/22-rdf-syntax-ns#" version="1.1" width="128.875" height="71.6562271118164">
          <defs>
            <style type="text/css">svg{background-color:#fff}text,tspan{font:12px Arial}path{fill-opacity:0;stroke-width:2px;stroke:#000}circle{fill:#6b6659;stroke-width:2px;stroke:#000}.anchor text,.any-character text{fill:#fff}.anchor rect,.any-character rect{fill:#6b6659}.escape text,.charset-escape text,.literal text{fill:#000}.escape rect,.charset-escape rect{fill:#bada55}.literal rect{fill:#dae9e5}.charset .charset-box{fill:#cbcbba}.subexp .subexp-label tspan,.charset .charset-label tspan,.match-fragment .repeat-label tspan{font-size:10px}.subexp .subexp-label tspan,.charset .charset-label tspan{dominant-baseline:text-after-edge}.subexp .subexp-box{stroke:#908c83;stroke-dasharray:6,2;stroke-width:2px;fill-opacity:0}.quote{fill:#908c83}
      </style>
          </defs>
          <metadata>
            <rdf:rdf>
              <cc:license rdf:about="http://creativecommons.org/licenses/by/3.0/">
                <cc:permits rdf:resource="http://creativecommons.org/ns#Reproduction"></cc:permits>
                <cc:permits rdf:resource="http://creativecommons.org/ns#Distribution"></cc:permits>
                <cc:requires rdf:resource="http://creativecommons.org/ns#Notice"></cc:requires>
                <cc:requires rdf:resource="http://creativecommons.org/ns#Attribution"></cc:requires>
                <cc:permits rdf:resource="http://creativecommons.org/ns#DerivativeWorks"></cc:permits>
              </cc:license>
            </rdf:rdf>
          </metadata>
        <desc>Created with Snap</desc><g transform="matrix(1,0,0,1,15,10)" class="root"><g transform="matrix(1,0,0,1,10,0)" class="regexp"><path d="M0,25.828113555908203c10,0 10,-14.164051055908203 20,-14.164051055908203M78.875,25.828113555908203c-10,0 -10,-14.164051055908203 -20,-14.164051055908203M0,25.828113555908203c10,0 10,14.164048944091796 20,14.164048944091796M78.875,25.828113555908203c-10,0 -10,14.164048944091796 -20,14.164048944091796"></path><g transform="matrix(1,0,0,1,20,0)" class="regexp-matches"><path d="M0,11.6640625h2.2188M36.6563,11.6640625H38.875M0,39.9921625h0M38.875,39.9921625H38.875"></path><g class="match match-fragment literal" transform="matrix(1,0,0,1,2.2188,0)"><g class="label"><rect width="34.4375" height="23.328125" rx="3" ry="3"></rect><text x="0" y="0" transform="matrix(1,0,0,1,5,16.6641)"><tspan class="quote">“</tspan><tspan>cat</tspan><tspan class="quote">”</tspan></text></g></g><g class="match match-fragment literal" transform="matrix(1,0,0,1,0,28.3281)"><g class="label"><rect width="38.875" height="23.328125" rx="3" ry="3"></rect><text x="0" y="0" transform="matrix(1,0,0,1,5,16.6641)"><tspan class="quote">“</tspan><tspan>dog</tspan><tspan class="quote">”</tspan></text></g></g></g></g><path d="M10,25.828113555908203H0M88.875,25.828113555908203H98.875"></path><circle cx="0" cy="25.828113555908203" r="5"></circle><circle cx="98.875" cy="25.828113555908203" r="5"></circle></g></svg>
      