
        <svg xmlns="http://www.w3.org/2000/svg" xmlns:cc="http://creativecommons.org/ns#" xmlns:rdf="http://www.w3.org/1999/02/22-rdf-syntax-ns#" version="1.1" width="203.28131103515625" height="53.328125">
          <defs>
            <style type="text/css">svg{background-color:#fff}text,tspan{font:12px Arial}path{fill-opacity:0;stroke-width:2px;stroke:#000}circle{fill:#6b6659;stroke-width:2px;stroke:#000}.anchor text,.any-character text{fill:#fff}.anchor rect,.any-character rect{fill:#6b6659}.escape text,.charset-escape text,.literal text{fill:#000}.escape rect,.charset-escape rect{fill:#bada55}.literal rect{fill:#dae9e5}.charset .charset-box{fill:#cbcbba}.subexp .subexp-label tspan,.charset .charset-label tspan,.match-fragment .repeat-label tspan{font-size:10px}.subexp .subexp-label tspan,.charset .charset-label tspan{dominant-baseline:text-after-edge}.subexp .subexp-box{stroke:#908c83;stroke-dasharray:6,2;stroke-width:2px;fill-opacity:0}.quote{fill:#908c83}
      </style>
          </defs>
          <metadata>
            <rdf:rdf>
              <cc:license rdf:about="http://creativecommons.org/licenses/by/3.0/">
                <cc:permits rdf:resource="http://creativecommons.org/ns#Reproduction"></cc:permits>
                <cc:permits rdf:resource="http://creativecommons.org/ns#Distribution"></cc:permits>
                <cc:requires rdf:resource="http://creativecommons.org/ns#Notice"></cc:requires>
                <cc:requires rdf:resource="http://creativecommons.org/ns#Attribution"></cc:requires>
                <cc:permits rdf:resource="http://creativecommons.org/ns#DerivativeWorks"></cc:permits>
              </cc:license>
            </rdf:rdf>
          </metadata>
        <desc>Created with Snap</desc><g transform="matrix(1,0,0,1,15,10)" class="root"><g transform="matrix(1,0,0,1,10,0)" class="regexp match"><path d="M32.203125,21.6640625H57.2031M79.40622690734864,21.6640625H104.4063"></path><g class="match-fragment literal" transform="matrix(1,0,0,1,0,10)"><g class="label"><rect width="32.203125" height="23.328125" rx="3" ry="3"></rect><text x="0" y="0" transform="matrix(1,0,0,1,5,16.6641)"><tspan class="quote">“</tspan><tspan>no</tspan><tspan class="quote">”</tspan></text></g></g><g class="match-fragment" transform="matrix(1,0,0,1,42.2031,0)"><path d="M0,21.6640625q10,0 10,-10v-1.6640625q0,-10 10,-10h12.203126907348633q10,0 10,10v1.6640625q0,10 10,10"></path><g transform="matrix(1,0,0,1,15,10)" class="literal"><g class="label"><rect width="22.203125" height="23.328125" rx="3" ry="3"></rect><text x="0" y="0" transform="matrix(1,0,0,1,5,16.6641)"><tspan class="quote">“</tspan><tspan>t</tspan><tspan class="quote">”</tspan></text></g></g></g><g class="match-fragment literal" transform="matrix(1,0,0,1,104.4063,10)"><g class="label"><rect width="48.875" height="23.328125" rx="3" ry="3"></rect><text x="0" y="0" transform="matrix(1,0,0,1,5,16.6641)"><tspan class="quote">“</tspan><tspan> to be</tspan><tspan class="quote">”</tspan></text></g></g></g><path d="M10,21.6640625H0M163.2813,21.6640625H173.28131103515625"></path><circle cx="0" cy="21.6640625" r="5"></circle><circle cx="173.28131103515625" cy="21.6640625" r="5"></circle></g></svg>
      