
        <svg xmlns="http://www.w3.org/2000/svg" xmlns:cc="http://creativecommons.org/ns#" xmlns:rdf="http://www.w3.org/1999/02/22-rdf-syntax-ns#" version="1.1" width="298.859375" height="94.421875">
          <defs>
            <style type="text/css">svg{background-color:#fff}text,tspan{font:12px Arial}path{fill-opacity:0;stroke-width:2px;stroke:#000}circle{fill:#6b6659;stroke-width:2px;stroke:#000}.anchor text,.any-character text{fill:#fff}.anchor rect,.any-character rect{fill:#6b6659}.escape text,.charset-escape text,.literal text{fill:#000}.escape rect,.charset-escape rect{fill:#bada55}.literal rect{fill:#dae9e5}.charset .charset-box{fill:#cbcbba}.subexp .subexp-label tspan,.charset .charset-label tspan,.match-fragment .repeat-label tspan{font-size:10px}.subexp .subexp-label tspan,.charset .charset-label tspan{dominant-baseline:text-after-edge}.subexp .subexp-box{stroke:#908c83;stroke-dasharray:6,2;stroke-width:2px;fill-opacity:0}.quote{fill:#908c83}
      </style>
          </defs>
          <metadata>
            <rdf:rdf>
              <cc:license rdf:about="http://creativecommons.org/licenses/by/3.0/">
                <cc:permits rdf:resource="http://creativecommons.org/ns#Reproduction"></cc:permits>
                <cc:permits rdf:resource="http://creativecommons.org/ns#Distribution"></cc:permits>
                <cc:requires rdf:resource="http://creativecommons.org/ns#Notice"></cc:requires>
                <cc:requires rdf:resource="http://creativecommons.org/ns#Attribution"></cc:requires>
                <cc:permits rdf:resource="http://creativecommons.org/ns#DerivativeWorks"></cc:permits>
              </cc:license>
            </rdf:rdf>
          </metadata>
        <desc>Created with Snap</desc><g transform="matrix(1,0,0,1,15,9.9844)" class="root"><g transform="matrix(1,0,0,1,10,0)" class="regexp match"><path d="M46.65625,42.7734625H81.6563M163.87505,42.7734625H198.875"></path><g class="match-fragment literal" transform="matrix(1,0,0,1,0,31.1094)"><g class="label"><rect width="46.65625" height="23.328125" rx="3" ry="3"></rect><text x="0" y="0" transform="matrix(1,0,0,1,5,16.6641)"><tspan class="quote">“</tspan><tspan>&lt;div&gt;</tspan><tspan class="quote">”</tspan></text></g></g><g class="match-fragment subexp" transform="matrix(1,0,0,1,56.6563,0)"><rect rx="3" ry="3" class="subexp-box" transform="matrix(1,0,0,1,0,11.1094)" width="132.21875" height="63.328125"></rect><text x="0" y="0" transform="matrix(1,0,0,1,0,11.1094)" class="subexp-label"><tspan>group #1</tspan></text><g transform="matrix(1,0,0,1,10,21.1094)" class="regexp match match-fragment"><path d="M0,21.6640625q10,0 10,-10v-1.6640625q0,-10 10,-10h72.21875q10,0 10,10v1.6640625q0,10 10,10M15,21.6640625q-10,0 -10,10v1.6640625q0,10 10,10h82.21875q10,0 10,-10v-1.6640625q0,-10 -10,-10M107.21875,36.6640625l5,-5m-5,5l-5,-5"></path><g transform="matrix(1,0,0,1,15,10)" class="any-character"><g class="label"><rect width="82.21875" height="23.328125"></rect><text x="0" y="0" transform="matrix(1,0,0,1,5,16.6641)"><tspan>any character</tspan></text></g></g></g></g><g class="match-fragment literal" transform="matrix(1,0,0,1,198.875,31.1094)"><g class="label"><rect width="49.984375" height="23.328125" rx="3" ry="3"></rect><text x="0" y="0" transform="matrix(1,0,0,1,5,16.6641)"><tspan class="quote">“</tspan><tspan>&lt;/div&gt;</tspan><tspan class="quote">”</tspan></text></g></g></g><path d="M10,42.7734625H0M258.859375,42.7734625H268.859375"></path><circle cx="0" cy="42.7734625" r="5"></circle><circle cx="268.859375" cy="42.7734625" r="5"></circle></g></svg>
      