
        <svg xmlns="http://www.w3.org/2000/svg" xmlns:cc="http://creativecommons.org/ns#" xmlns:rdf="http://www.w3.org/1999/02/22-rdf-syntax-ns#" version="1.1" width="186.07821655273438" height="116.0937271118164">
          <defs>
            <style type="text/css">svg{background-color:#fff}text,tspan{font:12px Arial}path{fill-opacity:0;stroke-width:2px;stroke:#000}circle{fill:#6b6659;stroke-width:2px;stroke:#000}.anchor text,.any-character text{fill:#fff}.anchor rect,.any-character rect{fill:#6b6659}.escape text,.charset-escape text,.literal text{fill:#000}.escape rect,.charset-escape rect{fill:#bada55}.literal rect{fill:#dae9e5}.charset .charset-box{fill:#cbcbba}.subexp .subexp-label tspan,.charset .charset-label tspan,.match-fragment .repeat-label tspan{font-size:10px}.subexp .subexp-label tspan,.charset .charset-label tspan{dominant-baseline:text-after-edge}.subexp .subexp-box{stroke:#908c83;stroke-dasharray:6,2;stroke-width:2px;fill-opacity:0}.quote{fill:#908c83}
      </style>
          </defs>
          <metadata>
            <rdf:rdf>
              <cc:license rdf:about="http://creativecommons.org/licenses/by/3.0/">
                <cc:permits rdf:resource="http://creativecommons.org/ns#Reproduction"></cc:permits>
                <cc:permits rdf:resource="http://creativecommons.org/ns#Distribution"></cc:permits>
                <cc:requires rdf:resource="http://creativecommons.org/ns#Notice"></cc:requires>
                <cc:requires rdf:resource="http://creativecommons.org/ns#Attribution"></cc:requires>
                <cc:permits rdf:resource="http://creativecommons.org/ns#DerivativeWorks"></cc:permits>
              </cc:license>
            </rdf:rdf>
          </metadata>
        <desc>Created with Snap</desc><g transform="matrix(1,0,0,1,15,9.9844)" class="root"><g transform="matrix(1,0,0,1,10,0)" class="regexp match"><path d="M25.546875,41.9375625H45.5469"></path><g class="match-fragment literal" transform="matrix(1,0,0,1,0,30.2735)"><g class="label"><rect width="25.546875" height="23.328125" rx="3" ry="3"></rect><text x="0" y="0" transform="matrix(1,0,0,1,5,16.6641)"><tspan class="quote">“</tspan><tspan>#</tspan><tspan class="quote">”</tspan></text></g></g><g class="match-fragment" transform="matrix(1,0,0,1,35.5469,0)"><path d="M10,41.9375135559082q-10,0 -10,10v20.828113351440436q0,10 10,10h75.53128051757812q10,0 10,-10v-20.828113351440436q0,-10 -10,-10M95.53128051757812,56.9375135559082l5,-5m-5,5l-5,-5"></path><g transform="matrix(1,0,0,1,10,0)" class="charset"><rect rx="3" ry="3" class="charset-box" transform="matrix(1,0,0,1,0,11.1094)" width="75.53128051757812" height="61.656227111816406"></rect><text x="0" y="0" transform="matrix(1,0,0,1,0,11.1094)" class="charset-label"><tspan>One of:</tspan></text><g transform="matrix(1,0,0,1,5,16.1094)"><g transform="matrix(1,0,0,1,0,0)" class="charset-range"><text x="0" y="0" transform="matrix(1,0,0,1,30.5469,16.1094)">-</text><g class="literal" transform="matrix(1,0,0,1,0,0)"><g class="label"><rect width="25.546875" height="23.328125" rx="3" ry="3"></rect><text x="0" y="0" transform="matrix(1,0,0,1,5,16.6641)"><tspan class="quote">“</tspan><tspan>0</tspan><tspan class="quote">”</tspan></text></g></g><g class="literal" transform="matrix(1,0,0,1,39.9844,0)"><g class="label"><rect width="25.546875" height="23.328125" rx="3" ry="3"></rect><text x="0" y="0" transform="matrix(1,0,0,1,5,16.6641)"><tspan class="quote">“</tspan><tspan>9</tspan><tspan class="quote">”</tspan></text></g></g></g><g transform="matrix(1,0,0,1,1.6719,28.3281)" class="charset-range"><text x="0" y="0" transform="matrix(1,0,0,1,30.5469,16.1094)">-</text><g class="literal" transform="matrix(1,0,0,1,0,0)"><g class="label"><rect width="25.546875" height="23.328125" rx="3" ry="3"></rect><text x="0" y="0" transform="matrix(1,0,0,1,5,16.6641)"><tspan class="quote">“</tspan><tspan>a</tspan><tspan class="quote">”</tspan></text></g></g><g class="literal" transform="matrix(1,0,0,1,39.9844,0)"><g class="label"><rect width="22.203125" height="23.328125" rx="3" ry="3"></rect><text x="0" y="0" transform="matrix(1,0,0,1,5,16.6641)"><tspan class="quote">“</tspan><tspan>f</tspan><tspan class="quote">”</tspan></text></g></g></g></g></g><text x="0" y="0" transform="matrix(1,0,0,1,67.2032,93.875)" class="repeat-label"><tspan>5 times</tspan></text></g></g><path d="M10,41.9375625H0M131.07818051757812,41.9375625H156.07823181152344"></path><circle cx="0" cy="41.9375625" r="5"></circle><circle cx="156.07823181152344" cy="41.9375625" r="5"></circle></g></svg>
      